<?xml version="1.0" encoding="iso-8859-1"?>
<!-- Generator: Adobe Illustrator 19.0.0, SVG Export Plug-In . SVG Version: 6.00 Build 0)  -->
<svg version="1.1" id="Layer_1" xmlns="http://www.w3.org/2000/svg" xmlns:xlink="http://www.w3.org/1999/xlink" x="0px" y="0px"
	 viewBox="0 0 503.467 503.467" style="enable-background:new 0 0 503.467 503.467;" xml:space="preserve">
<g transform="translate(1 1)">
	<path style="fill:#AAB1BA;" d="M400.067,223.427c11.947-6.827,16.213-22.187,9.387-34.133c-3.413-5.973-8.533-9.387-13.653-11.093
		c0.853-5.973,0.853-11.947-2.56-17.92c-6.827-11.947-22.187-16.213-34.133-9.387c-11.947,6.827-16.213,22.187-9.387,34.133
		l-64,36.693l-64-36.693c6.827-11.947,2.56-27.307-9.387-34.133c-11.947-6.827-27.307-2.56-34.133,9.387
		c-3.413,5.12-4.267,11.947-2.56,17.92c-5.973,1.707-11.093,5.973-14.507,11.093c-6.827,11.947-2.56,27.307,9.387,34.133
		c11.947,6.827,27.307,2.56,34.133-9.387l46.933,27.307v0.853l-46.933,27.307c-6.827-11.947-22.187-16.213-34.133-9.387
		c-11.947,6.827-16.213,22.187-9.387,34.133c3.413,5.973,8.533,9.387,14.507,11.093c-0.853,5.973-0.853,11.947,2.56,17.92
		c6.827,11.947,22.187,16.213,34.133,9.387s16.213-22.187,9.387-34.133l64-36.693l64,36.693c-6.827,11.947-2.56,27.307,9.387,34.133
		c11.947,6.827,27.307,2.56,34.133-9.387c3.413-5.12,4.267-11.947,2.56-17.92c5.973-1.707,11.093-5.973,13.653-11.093
		c6.827-11.947,2.56-27.307-9.387-34.133c-11.947-6.827-27.307-2.56-34.133,9.387L318.147,242.2l47.787-27.307
		C372.76,225.987,388.12,230.253,400.067,223.427L400.067,223.427z M54.467,395.8H498.2V88.6H54.467V395.8z"/>
	<g>
		<path style="fill:#E4F2DE;" d="M409.453,189.293c6.827,11.947,2.56,27.307-9.387,34.133c-11.947,6.827-27.307,2.56-34.133-9.387
			l-47.787,27.307l-33.28,19.627l-64,36.693c6.827,11.947,2.56,27.307-9.387,34.133c-11.947,6.827-27.307,2.56-34.133-9.387
			c-3.413-5.12-4.267-11.947-2.56-17.92c-5.973-1.707-11.093-5.973-13.653-11.093c-6.827-11.947-2.56-27.307,9.387-34.133
			c11.947-6.827,27.307-2.56,34.133,9.387l46.933-27.307l34.133-19.627l64-36.693c-6.827-11.947-2.56-27.307,9.387-34.133
			c11.947-6.827,27.307-2.56,34.133,9.387c3.413,5.12,4.267,11.947,2.56,17.92C400.92,179.907,406.04,183.32,409.453,189.293"/>
		<path style="fill:#E4F2DE;" d="M400.067,260.12c11.947,6.827,16.213,22.187,9.387,34.133c-3.413,5.973-8.533,9.387-13.653,11.093
			c0.853,5.973,0.853,11.947-2.56,17.92c-6.827,11.947-22.187,16.213-34.133,9.387s-16.213-22.187-9.387-34.133l-64-36.693
			L319,242.2l47.787,27.307C372.76,257.56,388.12,253.293,400.067,260.12z M284.867,222.573L250.733,242.2v-0.853L203.8,214.04
			c-6.827,11.947-22.187,16.213-34.133,9.387c-11.947-6.827-16.213-22.187-9.387-34.133c3.413-5.973,8.533-9.387,13.653-11.093
			c-1.707-5.973-0.853-11.947,2.56-17.92c6.827-11.947,22.187-16.213,34.133-9.387c11.947,6.827,16.213,22.187,9.387,34.133
			L284.867,222.573z"/>
	</g>
	<path style="fill:#FFD0A1;" d="M37.4,3.267c18.773,0,34.133,15.36,34.133,34.133c0,12.8-6.827,23.893-17.067,29.867V88.6v0.853
		v307.2v102.4l-34.133-17.067V68.12C10.093,62.147,3.267,51.053,3.267,38.253C3.267,18.627,18.627,3.267,37.4,3.267"/>
</g>
<path style="fill:#51565F;" d="M55.467,503.467c-2.56,0-4.267-1.707-4.267-4.267V124.587c0-2.56,1.707-4.267,4.267-4.267
	c2.56,0,4.267,1.707,4.267,4.267V499.2C59.733,501.76,58.027,503.467,55.467,503.467z M21.333,486.4
	c-2.56,0-4.267-1.707-4.267-4.267V69.973C6.827,63.147,0,51.2,0,38.4C0,17.067,17.067,0,38.4,0s38.4,17.067,38.4,38.4
	c0,12.8-6.827,24.747-17.067,31.573v15.36H499.2c2.56,0,4.267,1.707,4.267,4.267v307.2c0,2.56-1.707,4.267-4.267,4.267H89.6
	c-2.56,0-4.267-1.707-4.267-4.267s1.707-4.267,4.267-4.267h405.333V93.867H55.467c-2.56,0-4.267-1.707-4.267-4.267V67.413
	c0-1.707,0.853-2.56,1.707-3.413c9.387-5.12,15.36-15.36,15.36-25.6c0-16.213-13.653-29.867-29.867-29.867S8.533,22.187,8.533,38.4
	c0,10.24,5.973,20.48,15.36,25.6c1.707,0.853,1.707,2.56,1.707,3.413v414.72C25.6,484.693,23.893,486.4,21.333,486.4z
	 M372.053,341.333c-5.12,0-10.24-1.707-14.507-4.267c-12.8-7.68-17.92-23.04-12.8-36.693l-58.88-34.133l-58.88,34.133
	c5.12,13.653,0,29.013-12.8,36.693c-13.653,8.533-32.427,3.413-40.107-11.093c-3.413-5.12-4.267-11.093-3.413-17.067
	c-5.12-2.56-10.24-6.827-12.8-11.947c-4.267-6.827-5.12-14.507-2.56-22.187c1.707-7.68,6.827-13.653,13.653-17.92
	c6.827-4.267,14.507-5.12,22.187-2.56c5.973,1.707,11.947,5.12,15.36,10.24l37.547-21.333l-37.547-21.333
	c-4.267,5.12-9.387,8.533-15.36,10.24c-7.68,1.707-15.36,0.853-22.187-2.56c-13.653-8.533-18.773-26.453-11.093-40.107
	c3.413-5.12,7.68-9.387,12.8-11.947c-0.853-5.973,0.853-11.947,3.413-17.067c4.267-6.827,10.24-11.947,17.92-13.653
	c7.68-1.707,15.36-0.853,22.187,2.56c12.8,7.68,17.92,23.04,12.8,36.693l58.88,34.133l58.88-34.133
	c-5.12-13.653,0-29.013,12.8-36.693c6.827-4.267,14.507-5.12,22.187-2.56c7.68,1.707,13.653,6.827,17.92,13.653l0,0
	c3.413,5.12,4.267,11.093,3.413,17.067c5.12,2.56,10.24,6.827,12.8,11.947c8.533,13.653,3.413,32.427-11.093,40.107
	c-12.8,7.68-29.013,4.267-37.547-6.827l-37.547,21.333l37.547,21.333c8.533-11.093,24.747-14.507,37.547-6.827
	c13.653,8.533,18.773,26.453,11.093,40.107c-3.413,5.12-7.68,9.387-12.8,11.947c0.853,5.973-0.853,11.947-3.413,17.067
	c-4.267,6.827-10.24,11.947-17.92,13.653C377.173,341.333,374.613,341.333,372.053,341.333z M294.4,261.973l58.027,33.28
	c1.707,0.853,2.56,3.413,1.707,5.973c-5.973,10.24-2.56,23.04,7.68,28.16c5.12,2.56,10.24,3.413,16.213,1.707
	c5.12-1.707,10.24-5.12,12.8-9.387c2.56-4.267,3.413-9.387,2.56-14.507c-0.853-2.56,0.853-4.267,2.56-5.12
	c5.12-1.707,9.387-5.12,11.947-9.387c5.973-10.24,2.56-23.04-7.68-28.16c-10.24-5.973-23.04-2.56-28.16,7.68
	c-0.853,0.853-1.707,1.707-2.56,1.707c-0.853,0-2.56,0-3.413-0.853l-45.227-26.453L294.4,261.973z M182.613,261.973
	c-3.413,0-6.827,0.853-10.24,2.56c-5.12,2.56-8.533,7.68-9.387,12.8c-1.707,5.12-0.853,11.093,1.707,16.213
	c2.56,4.267,6.827,7.68,11.947,9.387c1.707,0.853,3.413,2.56,2.56,5.12c-0.853,5.12,0,10.24,2.56,14.507
	c5.973,10.24,18.773,13.653,28.16,7.68c10.24-5.973,13.653-18.773,7.68-28.16c-0.853-0.853-0.853-2.56,0-3.413
	c0-0.853,0.853-1.707,1.707-2.56l64-36.693l0,0l33.28-19.627l0,0l46.933-27.307c1.707-0.853,4.267-0.853,5.973,1.707
	c5.973,10.24,18.773,13.653,28.16,7.68c10.24-5.973,13.653-18.773,7.68-28.16c-2.56-4.267-6.827-7.68-11.947-9.387
	c-1.707-0.853-3.413-2.56-2.56-5.12c0.853-5.12,0-10.24-2.56-14.507l0,0c-2.56-5.12-7.68-8.533-12.8-9.387
	c-5.12-1.707-11.093-0.853-16.213,1.707c-10.24,5.973-13.653,18.773-7.68,28.16c0.853,1.707,0.853,4.267-1.707,5.973l-64,36.693l0,0
	l0,0L204.8,274.774c-0.853,0.853-2.56,0.853-3.413,0.853c-0.853,0-1.707-0.853-2.56-1.707c-2.56-5.12-7.68-8.533-12.8-9.387
	C186.88,261.973,185.173,261.973,182.613,261.973z M204.8,210.773c0.853,0,1.707,0,2.56,0.853l45.227,25.6l25.6-14.507
	l-58.027-33.28c-1.707-0.853-2.56-3.413-1.707-5.973c5.973-10.24,2.56-23.04-7.68-28.16c-5.12-2.56-10.24-3.413-16.213-1.707
	c-5.12,1.707-10.24,5.12-12.8,9.387s-3.413,9.387-2.56,14.507c0.853,2.56-0.853,4.267-2.56,5.12
	c-5.12,1.707-9.387,5.12-11.947,9.387c-5.973,10.24-2.56,23.04,7.68,28.16c5.12,2.56,10.24,3.413,16.213,1.707
	c5.12-1.707,10.24-5.12,12.8-9.387c0.853-0.853,1.707-1.707,2.56-1.707C203.947,210.773,204.8,210.773,204.8,210.773z"/>
<g>
</g>
<g>
</g>
<g>
</g>
<g>
</g>
<g>
</g>
<g>
</g>
<g>
</g>
<g>
</g>
<g>
</g>
<g>
</g>
<g>
</g>
<g>
</g>
<g>
</g>
<g>
</g>
<g>
</g>
</svg>
