<?xml version="1.0" encoding="iso-8859-1"?>
<!-- Generator: Adobe Illustrator 19.0.0, SVG Export Plug-In . SVG Version: 6.00 Build 0)  -->
<svg version="1.1" id="Layer_1" xmlns="http://www.w3.org/2000/svg" xmlns:xlink="http://www.w3.org/1999/xlink" x="0px" y="0px"
	 viewBox="0 0 503.893 503.893" style="enable-background:new 0 0 503.893 503.893;" xml:space="preserve">
<g transform="translate(1 2)">
	<path style="fill:#FFD0A1;" d="M327.96,215.813c0-18.773-15.36-34.133-34.133-34.133c-18.773,0-34.133,15.36-34.133,34.133
		s15.36,34.133,34.133,34.133C312.6,249.947,327.96,234.587,327.96,215.813 M327.96,79.28c0-18.773-15.36-34.133-34.133-34.133
		c-18.773,0-34.133,15.36-34.133,34.133s15.36,34.133,34.133,34.133C312.6,113.413,327.96,98.053,327.96,79.28 M396.227,147.547
		c-18.773,0-34.133-15.36-34.133-34.133c0,18.773-15.36,34.133-34.133,34.133c18.773,0,34.133,15.36,34.133,34.133
		C362.093,162.907,377.453,147.547,396.227,147.547 M464.493,215.813c0-18.773-15.36-34.133-34.133-34.133
		s-34.133,15.36-34.133,34.133s15.36,34.133,34.133,34.133S464.493,234.587,464.493,215.813 M464.493,79.28
		c0-18.773-15.36-34.133-34.133-34.133s-34.133,15.36-34.133,34.133s15.36,34.133,34.133,34.133S464.493,98.053,464.493,79.28
		 M430.36,11.013c37.547,0,68.267,30.72,68.267,68.267s-30.72,68.267-68.267,68.267c37.547,0,68.267,30.72,68.267,68.267
		s-30.72,68.267-68.267,68.267s-68.267-30.72-68.267-68.267c0,37.547-30.72,68.267-68.267,68.267
		c-11.947,0-23.893-3.413-34.133-9.387c-10.24-5.973-19.627-14.507-25.6-25.6c-5.973-10.24-9.387-21.333-9.387-34.133
		c0-37.547,30.72-68.267,68.267-68.267c-37.547,0-68.267-30.72-68.267-68.267s30.72-68.267,68.267-68.267
		s68.267,30.72,68.267,68.267C362.093,41.733,392.813,11.013,430.36,11.013"/>
	<path style="fill:#E4F2DE;" d="M234.947,249.947c5.973,10.24,14.507,19.627,25.6,25.6v0.853L47.213,489.733L4.547,447.067
		l17.067-51.2L55.747,430l34.133-34.133L234.947,249.947L234.947,249.947z M89.027,395.013l-34.133,34.133L20.76,395.013
		l51.2-17.067L89.027,395.013z"/>
</g>
<path style="fill:#51565F;" d="M47.36,495.147c-0.853,0-2.56,0-3.413-0.853L1.28,451.627c-1.707-1.707-1.707-4.267,0-5.973
	c1.707-1.707,4.267-1.707,5.973,0l39.253,39.253L235.094,296.32c1.707-1.707,4.267-1.707,5.973,0c1.707,1.707,1.707,4.267,0,5.973
	L49.92,493.44C49.92,495.147,48.213,495.147,47.36,495.147z M43.093,448.213c-0.853,0-2.56,0-3.413-0.853s-0.853-1.707-0.853-3.413
	c0-1.707,0-2.56,0.853-3.413l9.387-9.387l-30.72-30.72c-0.853-0.853-0.853-1.707-0.853-3.413s0-2.56,0.853-3.413
	c1.707-1.707,4.267-1.707,5.973,0l30.72,30.72l28.16-28.16l-13.653-13.653c-0.853-0.853-0.853-1.707-0.853-3.413s0-2.56,0.853-3.413
	c1.707-1.707,4.267-1.707,5.973,0l13.653,13.653l120.32-120.32c1.707-1.707,4.267-1.707,5.973,0
	c0.853,0.853,0.853,1.707,0.853,3.413s0,2.56-0.853,3.413L45.654,445.653C45.653,447.36,43.947,448.213,43.093,448.213z
	 M431.36,290.347c-31.573,0-58.027-19.627-68.267-47.787c-10.24,28.16-36.693,47.787-68.267,47.787
	c-40.107,0-72.533-32.427-72.533-72.533c0-31.573,19.627-58.027,47.787-68.267c-28.16-10.24-47.787-36.693-47.787-68.267
	c0-40.107,32.427-72.533,72.533-72.533c31.573,0,58.027,19.627,68.267,47.787c10.24-28.16,36.693-47.787,68.267-47.787
	c40.107,0,72.533,32.427,72.533,72.533c0,31.573-19.627,58.027-47.787,68.267c28.16,10.24,47.787,36.693,47.787,68.267
	C503.893,257.92,471.467,290.347,431.36,290.347z M363.093,213.547c2.56,0,4.267,1.707,4.267,4.267c0,34.987,29.013,64,64,64
	s64-29.013,64-64s-29.013-64-64-64c-2.56,0-4.267-1.707-4.267-4.267c0-2.56,1.707-4.267,4.267-4.267c34.987,0,64-29.013,64-64
	s-29.013-64-64-64s-64,29.013-64,64c0,2.56-1.707,4.267-4.267,4.267s-4.267-1.707-4.267-4.267c0-34.987-29.013-64-64-64
	s-64,29.013-64,64s29.013,64,64,64c2.56,0,4.267,1.707,4.267,4.267c0,2.56-1.707,4.267-4.267,4.267c-34.987,0-64,29.013-64,64
	s29.013,64,64,64s64-29.013,64-64C358.827,215.253,360.533,213.547,363.093,213.547z M431.36,256.213
	c-21.333,0-38.4-17.067-38.4-38.4s17.067-38.4,38.4-38.4s38.4,17.067,38.4,38.4S452.693,256.213,431.36,256.213z M431.36,187.947
	c-16.213,0-29.867,13.653-29.867,29.867s13.653,29.867,29.867,29.867s29.867-13.653,29.867-29.867S447.573,187.947,431.36,187.947z
	 M294.827,256.213c-21.333,0-38.4-17.067-38.4-38.4s17.067-38.4,38.4-38.4c21.333,0,38.4,17.067,38.4,38.4
	S316.16,256.213,294.827,256.213z M294.827,187.947c-16.213,0-29.867,13.653-29.867,29.867s13.653,29.867,29.867,29.867
	c16.213,0,29.867-13.653,29.867-29.867S311.04,187.947,294.827,187.947z M363.093,187.947c-2.56,0-4.267-1.707-4.267-4.267
	c0-16.213-13.653-29.867-29.867-29.867c-2.56,0-4.267-1.707-4.267-4.267c0-2.56,1.707-4.267,4.267-4.267
	c16.213,0,29.867-13.653,29.867-29.867c0-2.56,1.707-4.267,4.267-4.267s4.267,1.707,4.267,4.267
	c0,16.213,13.653,29.867,29.867,29.867c2.56,0,4.267,1.707,4.267,4.267c0,2.56-1.707,4.267-4.267,4.267
	c-16.213,0-29.867,13.653-29.867,29.867C367.36,186.24,365.653,187.947,363.093,187.947z M346.88,149.547
	c6.827,3.413,12.8,9.387,16.213,16.213c3.413-6.827,9.387-12.8,16.213-16.213c-6.827-3.413-12.8-9.387-16.213-16.213
	C359.68,140.16,353.707,146.133,346.88,149.547z M431.36,119.68c-21.333,0-38.4-17.067-38.4-38.4s17.067-38.4,38.4-38.4
	s38.4,17.067,38.4,38.4S452.693,119.68,431.36,119.68z M431.36,51.413c-16.213,0-29.867,13.653-29.867,29.867
	s13.653,29.867,29.867,29.867s29.867-13.653,29.867-29.867S447.573,51.413,431.36,51.413z M294.827,119.68
	c-21.333,0-38.4-17.067-38.4-38.4s17.067-38.4,38.4-38.4c21.333,0,38.4,17.067,38.4,38.4S316.16,119.68,294.827,119.68z
	 M294.827,51.413c-16.213,0-29.867,13.653-29.867,29.867s13.653,29.867,29.867,29.867c16.213,0,29.867-13.653,29.867-29.867
	S311.04,51.413,294.827,51.413z"/>
<g>
</g>
<g>
</g>
<g>
</g>
<g>
</g>
<g>
</g>
<g>
</g>
<g>
</g>
<g>
</g>
<g>
</g>
<g>
</g>
<g>
</g>
<g>
</g>
<g>
</g>
<g>
</g>
<g>
</g>
</svg>
