<?xml version="1.0" encoding="iso-8859-1"?>
<!-- Generator: Adobe Illustrator 19.0.0, SVG Export Plug-In . SVG Version: 6.00 Build 0)  -->
<svg version="1.1" id="Layer_1" xmlns="http://www.w3.org/2000/svg" xmlns:xlink="http://www.w3.org/1999/xlink" x="0px" y="0px"
	 viewBox="0 0 502.835 502.835" style="enable-background:new 0 0 502.835 502.835;" xml:space="preserve">
<g transform="translate(1 1)">
	<path style="fill:#AAB1BA;" d="M233.667,207.324v17.067c0,19.627-14.507,34.133-34.133,34.133S165.4,244.871,165.4,224.391v-17.067
		c0-4.267,3.413-8.533,8.533-8.533h51.2C230.253,198.791,233.667,203.057,233.667,207.324"/>
	<path style="fill:#F2EDDA;" d="M299.373,325.937l53.76,17.92c0,15.36-3.413,43.52-26.453,67.413
		c-15.36,15.36-39.253,28.16-75.947,34.987c-36.693-6.827-60.587-19.627-75.947-34.987c-23.893-23.893-26.453-52.053-26.453-67.413
		l51.2-17.92l0.853-0.853c2.56,0.853,5.12,1.707,8.533,1.707c0,0,25.6,0,42.667-17.067c17.067,17.067,42.667,17.067,42.667,17.067
		C295.96,326.791,297.667,326.791,299.373,325.937L299.373,325.937z"/>
	<path style="fill:#AE938D;" d="M361.667,412.124L319,497.457H3.267l8.533-34.133c8.533-34.133,93.867-51.2,128-51.2h34.133
		l0.853-0.853c15.36,15.36,38.4,28.16,75.947,34.987c36.693-6.827,60.587-20.48,75.947-34.987l0.853,0.853H361.667z
		 M489.667,463.324l8.533,34.133H378.733l34.133-78.507h0.853l28.16,7.68C465.773,434.311,486.253,448.817,489.667,463.324z"/>
	<path style="fill:#FFD0A1;" d="M353.133,343.857l-53.76-17.92l0,0c-1.707,0.853-3.413,0.853-5.973,0.853c0,0-25.6,0-42.667-17.067
		c-17.067,17.067-42.667,17.067-42.667,17.067c-3.413,0-5.973-0.853-8.533-1.707l-0.853,0.853l-51.2,17.92
		c-17.067-25.6-25.6-68.267-25.6-68.267c-9.387,0-17.067-7.68-17.067-17.067v-34.133c0-9.387,7.68-17.067,17.067-17.067v-34.133
		v-0.853c33.28-4.267,75.093-7.68,128-7.68s95.573,3.413,128,7.68v0.853v34.133c9.387,0,17.067,7.68,17.067,17.067v34.133
		c0,9.387-7.68,17.067-17.067,17.067C378.733,275.591,370.2,318.257,353.133,343.857L353.133,343.857z M233.667,207.324
		c0-4.267-3.413-8.533-8.533-8.533h-51.2c-5.12,0-8.533,4.267-8.533,8.533v17.067c0,20.48,14.507,34.133,34.133,34.133
		s34.133-14.507,34.133-34.133V207.324z"/>
	<path style="fill:#E4F2DE;" d="M412.867,418.951l-34.133,78.507H319l42.667-85.333C373.613,412.124,393.24,414.684,412.867,418.951
		"/>
	<path style="fill:#AAB1BA;" d="M481.133,147.591l-17.067,42.667c0,0-27.307-10.24-85.333-17.92c-32.427-4.267-75.093-7.68-128-7.68
		s-95.573,3.413-128,7.68c-58.027,7.68-85.333,17.92-85.333,17.92l-17.067-42.667c0,0,42.667-17.067,85.333-42.667
		S139.8,2.524,250.733,2.524s110.933,76.8,145.067,102.4S481.133,147.591,481.133,147.591"/>
</g>
<path style="fill:#51565F;" d="M499.2,502.724c-1.707,0-3.413-1.707-4.267-3.413l-8.533-34.133
	c-3.413-12.8-21.333-25.6-46.08-34.133c-2.56-0.853-3.413-3.413-2.56-5.12c0.853-1.707,3.413-3.413,5.12-2.56
	c27.307,8.533,47.787,24.747,51.2,40.107l8.533,34.133C503.467,500.164,501.76,501.871,499.2,502.724
	C500.053,502.724,499.2,502.724,499.2,502.724z M4.267,502.724H3.413c-2.56-0.853-3.413-2.56-3.413-5.12l8.533-34.133
	c9.387-37.547,99.84-54.613,132.267-54.613c2.56,0,4.267,1.707,4.267,4.267c0,2.56-1.707,4.267-4.267,4.267
	c-38.4,0-116.907,18.773-123.733,47.787l-8.533,34.133C7.68,501.017,5.973,502.724,4.267,502.724z M379.733,502.724H320
	c-1.707,0-2.56-0.853-3.413-1.707c-0.853-0.853-0.853-2.56,0-4.267l42.667-85.333c0.853-1.707,2.56-2.56,3.413-2.56
	c13.653,0,33.28,2.56,52.053,6.827c0.853,0,2.56,0.853,2.56,2.56s0.853,2.56,0,3.413l-34.133,78.507
	C383.147,501.871,381.44,502.724,379.733,502.724z M326.827,494.191h50.347l30.72-71.68c-15.36-3.413-30.72-5.12-42.667-5.12
	L326.827,494.191z M251.733,502.724c-2.56,0-4.267-1.707-4.267-4.267v-17.067c0-2.56,1.707-4.267,4.267-4.267
	c2.56,0,4.267,1.707,4.267,4.267v17.067C256,501.017,254.293,502.724,251.733,502.724z M251.733,451.524
	C251.733,451.524,250.88,451.524,251.733,451.524c-91.307-16.213-106.667-72.533-106.667-104.96
	c-14.507-22.187-22.187-55.467-24.747-65.707c-10.24-1.707-17.92-10.24-17.92-21.333v-34.133c0-11.947,9.387-21.333,21.333-21.333
	c2.56,0,4.267,1.707,4.267,4.267c0,2.56-1.707,4.267-4.267,4.267c-6.827,0-12.8,5.973-12.8,12.8v34.133
	c0,6.827,5.973,12.8,12.8,12.8c1.707,0,3.413,1.707,4.267,3.413c0,0,7.68,39.253,23.04,64l22.187-7.68
	c2.56-0.853,4.267,0.853,5.12,2.56c0,0.853,0,0.853,0,1.707c0,1.707-0.853,3.413-2.56,4.267l-23.04,7.68
	c0.853,29.867,15.36,79.36,98.133,94.72c82.773-15.36,97.28-64.853,98.133-94.72l-23.04-7.68c-1.707-0.853-2.56-2.56-2.56-4.267
	c0-0.853,0-0.853,0-1.707c0.853-2.56,3.413-3.413,5.12-2.56l22.187,7.68c15.36-24.747,23.04-64,23.04-64
	c0-1.707,2.56-3.413,4.267-3.413c6.827,0,12.8-5.973,12.8-12.8v-34.133c0-6.827-5.973-12.8-12.8-12.8
	c-2.56,0-4.267-1.707-4.267-4.267c0-2.56,1.707-4.267,4.267-4.267c11.947,0,21.333,9.387,21.333,21.333v34.133
	c0,10.24-7.68,19.627-17.92,21.333c-2.56,10.24-10.24,43.52-24.747,65.707C358.4,378.991,343.04,435.311,251.733,451.524
	C252.587,451.524,251.733,451.524,251.733,451.524z M260.267,357.657H243.2c-2.56,0-4.267-1.707-4.267-4.267
	c0-2.56,1.707-4.267,4.267-4.267h17.067c2.56,0,4.267,1.707,4.267,4.267C264.533,355.951,262.827,357.657,260.267,357.657z
	 M294.4,332.057c-0.853,0-24.747,0-42.667-15.36c-17.92,15.36-41.813,15.36-42.667,15.36c-11.947,0-21.333-9.387-21.333-21.333
	c0-11.947,9.387-21.333,21.333-21.333c2.56,0,4.267,1.707,4.267,4.267c0,2.56-1.707,4.267-4.267,4.267
	c-6.827,0-12.8,5.973-12.8,12.8s5.973,12.8,12.8,12.8c0,0,23.893,0,39.253-16.213c1.707-1.707,4.267-1.707,5.973,0
	c15.36,15.36,39.253,16.213,39.253,16.213c6.827,0,12.8-5.973,12.8-12.8s-5.973-12.8-12.8-12.8c-2.56,0-4.267-1.707-4.267-4.267
	c0-2.56,1.707-4.267,4.267-4.267c11.947,0,21.333,9.387,21.333,21.333C314.88,322.671,306.347,332.057,294.4,332.057z
	 M146.773,268.911c-1.707,0-2.56-0.853-3.413-1.707c-0.853-0.853-0.853-1.707-0.853-2.56c0-1.707,0.853-2.56,1.707-3.413
	l23.04-15.36c-3.413-5.973-5.12-12.8-5.12-19.627v-17.067c0-6.827,5.973-12.8,12.8-12.8h51.2c4.267,0,8.533,2.56,11.093,5.973
	l46.933-31.573c-10.24,0-21.333-0.853-32.427-0.853c-142.507,0-210.773,24.747-211.627,25.6c-2.56,0.853-4.267,0-5.12-2.56
	L17.92,150.298c-0.853-2.56,0-4.267,2.56-5.12c0,0,42.667-17.067,84.48-42.667c12.8-7.68,21.333-21.333,29.867-35.84
	c18.773-31.573,40.107-66.56,116.907-66.56c81.067,0,104.96,40.107,123.733,72.533c7.68,12.8,14.507,23.893,23.893,30.72
	c33.28,24.747,83.627,41.813,84.48,41.813c0.853,0,1.707,0.853,2.56,2.56c0.853,0.853,0.853,2.56,0,3.413l-17.067,42.667
	c-0.853,2.56-3.413,3.413-5.12,2.56c-0.853,0-54.613-19.627-164.693-24.747l-59.733,40.107v14.507c0,22.187-16.213,38.4-38.4,38.4
	c-11.947,0-21.333-4.267-28.16-11.093l-23.04,15.36C148.48,268.057,147.627,268.911,146.773,268.911z M174.933,204.057
	c-2.56,0-4.267,1.707-4.267,4.267v17.067c0,17.92,11.947,29.867,29.867,29.867c17.067,0,29.867-12.8,29.867-29.867v-17.067l0,0l0,0
	c0-2.56-1.707-4.267-4.267-4.267H174.933z M251.733,161.391c126.293,0,194.56,18.773,210.773,24.747l13.653-34.987
	c-12.8-5.12-53.76-20.48-81.92-41.813c-10.24-7.68-17.92-20.48-25.6-33.28C349.867,44.484,328.533,7.791,251.733,7.791
	c-71.68,0-91.307,31.573-110.08,62.293c-9.387,15.36-17.92,29.867-33.28,39.253c-34.987,21.333-70.827,36.693-81.92,40.96
	l13.653,34.987C57.173,180.164,125.44,161.391,251.733,161.391z M302.933,238.191c-2.56,0-4.267-1.707-4.267-4.267v-4.267h-12.8
	c-2.56,0-4.267-1.707-4.267-4.267s1.707-4.267,4.267-4.267H320c2.56,0,4.267,1.707,4.267,4.267s-1.707,4.267-4.267,4.267h-12.8
	v4.267C307.2,236.484,305.493,238.191,302.933,238.191z M294.4,118.724c-0.853,0-1.707,0-2.56-0.853l-40.107-23.893l-40.107,23.893
	c-1.707,0.853-4.267,0.853-5.973-1.707c0-0.853-0.853-1.707-0.853-2.56c0-1.707,0.853-2.56,1.707-3.413L243.2,88.004l-36.693-22.187
	c-1.707-0.853-1.707-2.56-1.707-3.413s0-1.707,0.853-2.56c0.853-1.707,3.413-2.56,5.973-1.707l40.107,23.893l40.107-23.893
	c1.707-0.853,4.267-0.853,5.973,1.707c0,0.853,0.853,1.707,0.853,2.56c0,1.707-0.853,2.56-1.707,3.413l-36.693,22.187l36.693,22.187
	c1.707,0.853,1.707,2.56,1.707,3.413s0,1.707-0.853,2.56C296.96,117.871,296.107,118.724,294.4,118.724z"/>
<g>
</g>
<g>
</g>
<g>
</g>
<g>
</g>
<g>
</g>
<g>
</g>
<g>
</g>
<g>
</g>
<g>
</g>
<g>
</g>
<g>
</g>
<g>
</g>
<g>
</g>
<g>
</g>
<g>
</g>
</svg>
