<?xml version="1.0" encoding="iso-8859-1"?>
<!-- Generator: Adobe Illustrator 19.0.0, SVG Export Plug-In . SVG Version: 6.00 Build 0)  -->
<svg version="1.1" id="Layer_1" xmlns="http://www.w3.org/2000/svg" xmlns:xlink="http://www.w3.org/1999/xlink" x="0px" y="0px"
	 viewBox="0 0 503.689 503.689" style="enable-background:new 0 0 503.689 503.689;" xml:space="preserve">
<g transform="translate(1 3)">
	<path style="fill:#80D6FA;" d="M46.155,445.111c0,0,8.533,17.067,34.133,17.067s34.133-17.067,34.133-17.067
		s8.533,17.067,34.133,17.067s34.133-17.067,34.133-17.067s8.533,17.067,34.133,17.067s34.133-17.067,34.133-17.067
		s8.533,17.067,34.133,17.067s34.133-17.067,34.133-17.067s8.533,17.067,34.133,17.067s34.133-17.067,34.133-17.067
		s7.68,16.213,31.573,17.067c0.853,0,1.707,0,2.56,0c25.6,0,34.133-17.067,34.133-17.067s8.533,17.067,34.133,17.067
		c3.413,0,5.973,0,8.533-0.853v34.133c-2.56,0.853-5.12,0.853-8.533,0.853c-25.6,0-34.133-17.067-34.133-17.067
		s-8.533,17.067-34.133,17.067s-34.133-17.067-34.133-17.067s-8.533,17.067-34.133,17.067s-34.133-17.067-34.133-17.067
		s-8.533,17.067-34.133,17.067s-34.133-17.067-34.133-17.067s-8.533,17.067-34.133,17.067s-34.133-17.067-34.133-17.067
		s-8.533,17.067-34.133,17.067s-34.133-17.067-34.133-17.067s-8.533,17.067-34.133,17.067s-34.133-17.067-34.133-17.067
		s-8.533,17.067-34.133,17.067c-3.413,0-5.973,0-8.533-0.853v-34.133c2.56,0.853,5.12,0.853,8.533,0.853
		C37.622,462.178,46.155,445.111,46.155,445.111"/>
	<path style="fill:#FFD0A1;" d="M314.102,407.564c6.827,6.827,6.827,17.067,0,23.893c-1.707,1.707-6.827,6.827-8.533,8.533
		c-6.827,6.827-17.067,6.827-23.893,0s-6.827-17.067,0-23.893c1.707-1.707,6.827-6.827,8.533-8.533
		C297.035,400.738,307.275,400.738,314.102,407.564z M204.875,407.564c6.827-6.827,17.067-6.827,23.893,0
		c6.827,6.827,6.827,17.067,0,23.893c-1.707,1.707-6.827,6.827-8.533,8.533c-6.827,6.827-17.067,6.827-23.893,0
		s-6.827-17.067,0-23.893C198.049,414.391,203.169,409.271,204.875,407.564z M134.902,439.991c-6.827,6.827-17.067,6.827-23.893,0
		c-6.827-6.827-6.827-17.067,0-23.893c1.707-1.707,6.827-6.827,8.533-8.533c6.827-6.827,17.067-6.827,23.893,0
		c6.827,6.827,6.827,17.067,0,23.893C141.729,433.164,136.609,438.284,134.902,439.991z"/>
	<g>
		<path style="fill:#AAB1BA;" d="M285.089,291.511h-59.733h-153.6c-51.2-256,153.6-273.067,153.6-273.067
			c0,110.08,11.093,186.88,33.28,238.933c0,0.853,0.853,1.707,0.853,1.707C259.489,259.938,270.582,282.124,285.089,291.511"/>
		<path style="fill:#AAB1BA;" d="M259.489,257.378V137.911c0-51.2,51.2-85.333,51.2-85.333s0,153.6,59.733,238.933h-85.333
			c-15.36-9.387-25.6-31.573-25.6-31.573c0-0.853-0.853-1.707-0.853-1.707L259.489,257.378z"/>
	</g>
	<path style="fill:#AE938D;" d="M111.009,439.991c6.827,6.827,17.067,6.827,23.893,0c1.707-1.707,6.827-6.827,8.533-8.533
		c6.827-6.827,6.827-17.067,0-23.893c-6.827-6.827-17.067-6.827-23.893,0c-1.707,1.707-6.827,6.827-8.533,8.533
		C104.182,422.924,104.182,433.164,111.009,439.991 M114.422,445.111c0,0-8.533,17.067-34.133,17.067s-34.133-17.067-34.133-17.067
		c-25.6-17.067-42.667-30.72-42.667-68.267v-68.267h25.6c17.067,0,17.067,34.133,34.133,34.133h315.733
		c28.16,0,51.2-23.893,51.2-51.2v-34.133c0-18.773,15.36-34.133,34.133-34.133h34.133v25.6c0,8.533-17.067,8.533-17.067,17.067v76.8
		c0,64-29.867,82.773-62.293,98.987l-0.853,20.48c-23.04-0.853-31.573-17.067-31.573-17.067s-8.533,17.067-34.133,17.067
		s-34.133-17.067-34.133-17.067s-8.533,17.067-34.133,17.067s-34.133-17.067-34.133-17.067s-8.533,17.067-34.133,17.067
		s-34.133-17.067-34.133-17.067s-8.533,17.067-34.133,17.067C122.955,462.178,114.422,445.111,114.422,445.111 M196.342,439.991
		c6.827,6.827,17.067,6.827,23.893,0c1.707-1.707,6.827-6.827,8.533-8.533c6.827-6.827,6.827-17.067,0-23.893
		c-6.827-6.827-17.067-6.827-23.893,0c-1.707,1.707-6.827,6.827-8.533,8.533C189.515,422.924,189.515,433.164,196.342,439.991
		 M281.675,439.991c6.827,6.827,17.067,6.827,23.893,0c1.707-1.707,6.827-6.827,8.533-8.533c6.827-6.827,6.827-17.067,0-23.893
		c-6.827-6.827-17.067-6.827-23.893,0c-1.707,1.707-6.827,6.827-8.533,8.533C274.849,422.924,274.849,433.164,281.675,439.991"/>
</g>
<path style="fill:#51565F;" d="M490.889,503.578c-18.773,0-29.013-8.533-34.133-13.653c-5.12,5.973-15.36,13.653-34.133,13.653
	s-29.013-8.533-34.133-13.653c-5.12,5.973-15.36,13.653-34.133,13.653s-29.013-8.533-34.133-13.653
	c-5.12,5.973-15.36,13.653-34.133,13.653c-18.773,0-29.013-8.533-34.133-13.653c-5.12,5.973-15.36,13.653-34.133,13.653
	s-29.013-8.533-34.133-13.653c-5.12,5.973-15.36,13.653-34.133,13.653c-18.773,0-29.013-8.533-34.133-13.653
	c-5.12,5.973-15.36,13.653-34.133,13.653s-29.013-8.533-34.133-13.653c-5.12,5.973-15.36,13.653-34.133,13.653
	c-3.413,0-5.973,0-9.387-0.853c-2.56,0-4.267-2.56-3.413-5.12c0-2.56,2.56-4.267,5.12-3.413c2.56,0.853,5.12,0.853,7.68,0.853
	c22.187,0,29.867-14.507,30.72-14.507c0.853-1.707,1.707-2.56,3.413-2.56c1.707,0,3.413,0.853,3.413,2.56
	c0,0.853,7.68,14.507,30.72,14.507s29.867-14.507,30.72-14.507c0.853-1.707,2.56-2.56,3.413-2.56c1.707,0,3.413,0.853,3.413,2.56
	c0,0.853,7.68,14.507,30.72,14.507s29.867-14.507,30.72-14.507c0.853-1.707,2.56-2.56,3.413-2.56c1.707,0,3.413,0.853,3.413,2.56
	c0,0.853,7.68,14.507,30.72,14.507s29.867-14.507,30.72-14.507c0.853-1.707,1.707-2.56,3.413-2.56s3.413,0.853,3.413,2.56
	c0,0.853,7.68,14.507,30.72,14.507c23.04,0,29.867-14.507,30.72-14.507c0.853-1.707,2.56-2.56,3.413-2.56l0,0
	c1.707,0,3.413,0.853,3.413,2.56c0,0.853,7.68,14.507,30.72,14.507s29.867-14.507,30.72-14.507c0.853-1.707,2.56-2.56,3.413-2.56
	l0,0c1.707,0,3.413,0.853,3.413,2.56c0,0.853,7.68,14.507,30.72,14.507s29.867-14.507,30.72-14.507
	c0.853-1.707,2.56-1.707,3.413-2.56c1.707,0,3.413,0.853,3.413,2.56c0,0.853,7.68,14.507,30.72,14.507c2.56,0,5.12,0,7.68-0.853
	c2.56,0,4.267,0.853,5.12,3.413c0,2.56-0.853,4.267-3.413,5.12C496.862,503.578,494.302,503.578,490.889,503.578z M294.622,452.378
	c-5.973,0-11.093-2.56-15.36-5.973c-8.533-8.533-8.533-22.187,0-29.867l8.533-8.533c6.827-6.827,18.773-7.68,26.453-2.56
	l28.16-28.16c1.707-1.707,4.267-1.707,5.973,0c0.853,0.853,0.853,1.707,0.853,3.413s0,2.56-0.853,3.413l-28.16,28.16
	c5.12,8.533,4.267,19.627-2.56,26.453l-8.533,8.533C305.715,449.818,300.595,452.378,294.622,452.378z M303.155,409.711
	c-3.413,0-6.827,1.707-9.387,3.413l-8.533,8.533c-5.12,5.12-5.12,12.8,0,17.92c5.12,5.12,13.653,5.12,17.92,0l8.533-8.533
	c5.12-5.12,5.12-11.947,0.853-17.067c0,0-0.853,0-0.853-0.853s-0.853-0.853-0.853-0.853
	C309.129,410.564,306.569,409.711,303.155,409.711z M209.289,452.378c-5.973,0-11.093-2.56-15.36-5.973
	c-8.533-8.533-8.533-22.187,0-29.867l8.533-8.533c6.827-6.827,18.773-7.68,26.453-2.56l28.16-28.16c1.707-1.707,4.267-1.707,5.973,0
	c0.853,0.853,0.853,1.707,0.853,3.413s0,2.56-0.853,3.413l-28.16,28.16c5.12,8.533,4.267,19.627-2.56,26.453l-8.533,8.533
	C220.382,449.818,215.262,452.378,209.289,452.378z M217.822,409.711c-3.413,0-6.827,1.707-9.387,3.413l-8.533,8.533
	c-5.12,5.12-5.12,12.8,0,17.92c5.12,5.12,13.653,5.12,17.92,0l8.533-8.533c5.12-5.12,5.12-11.947,0.853-17.067
	c0,0-0.853,0-0.853-0.853s-0.853-0.853-0.853-0.853C223.795,410.564,221.235,409.711,217.822,409.711z M123.955,452.378
	c-5.973,0-11.093-2.56-15.36-5.973c-8.533-8.533-8.533-22.187,0-29.867l8.533-8.533c6.827-6.827,18.773-7.68,26.453-2.56
	l28.16-28.16c1.707-1.707,4.267-1.707,5.973,0c0.853,0.853,0.853,1.707,0.853,3.413s0,2.56-0.853,3.413l-28.16,28.16
	c5.12,8.533,4.267,19.627-2.56,26.453l-8.533,8.533C135.049,449.818,129.929,452.378,123.955,452.378z M132.489,409.711
	c-3.413,0-6.827,1.707-9.387,3.413l-8.533,8.533c-5.12,5.12-5.12,12.8,0,17.92c5.12,5.12,13.653,5.12,17.92,0l8.533-8.533
	c5.12-5.12,5.12-11.947,0.853-17.067c0,0-0.853,0-0.853-0.853s-0.853-0.853-0.853-0.853
	C138.462,410.564,135.902,409.711,132.489,409.711z M414.089,452.378c-1.707,0-3.413-0.853-3.413-2.56
	c-0.853-1.707,0-4.267,1.707-5.973c34.133-17.067,65.707-33.28,65.707-98.987v-76.8c0-6.827,5.973-10.24,11.093-11.947
	c3.413-1.707,5.973-3.413,5.973-5.12v-21.333h-29.867c-16.213,0-29.867,13.653-29.867,29.867v34.133
	c0,29.867-25.6,55.467-55.467,55.467H64.222c-11.093,0-16.213-10.24-20.48-19.627c-4.267-9.387-7.68-14.507-13.653-14.507H8.755v64
	c0,35.84,15.36,47.787,40.96,64.853c1.707,1.707,2.56,4.267,0.853,5.973c-1.707,1.707-4.267,2.56-5.973,0.853
	c-27.307-17.92-44.373-32.427-44.373-71.68v-68.267c0-2.56,1.707-4.267,4.267-4.267h25.6c11.093,0,16.213,10.24,20.48,19.627
	c4.267,9.387,7.68,14.507,13.653,14.507h315.733c25.6,0,46.933-21.333,46.933-46.933v-34.133c0-20.48,17.92-38.4,38.4-38.4h34.133
	c2.56,0,4.267,1.707,4.267,4.267v25.6c0,6.827-5.973,10.24-11.093,11.947c-3.413,1.707-5.973,3.413-5.973,5.12v76.8
	c0,70.827-35.84,88.747-70.827,105.813C415.795,452.378,414.942,452.378,414.089,452.378z M226.355,315.844
	c-2.56,0-4.267-1.707-4.267-4.267v-12.8H72.755c-1.707,0-3.413-1.707-4.267-3.413c-17.067-87.04-7.68-157.013,29.867-206.507
	c42.667-57.173,106.667-69.12,123.733-70.827V4.378c0-2.56,1.707-4.267,4.267-4.267c2.56,0,4.267,1.707,4.267,4.267v17.067
	c0,108.373,11.093,186.88,34.133,239.787c0.853,2.56,0,4.267-2.56,5.973c-2.56,0.853-4.267,0-5.973-2.56
	c-23.04-52.907-34.133-130.56-34.133-238.08c-17.067,2.56-77.653,15.36-116.907,67.413c-34.987,46.933-45.227,112.64-29.013,196.267
	h287.573c-48.64-75.093-54.613-193.707-55.467-226.133c-13.653,11.093-42.667,39.253-42.667,76.8c0,2.56-1.707,4.267-4.267,4.267
	s-4.267-1.707-4.267-4.267c0-52.907,51.2-87.04,52.907-88.747c1.707-0.853,3.413-0.853,4.267,0c1.707,0.853,2.56,2.56,2.56,3.413
	c0,1.707,0.853,153.6,58.88,236.373c0.853,1.707,0.853,3.413,0,4.267c-0.853,1.707-2.56,2.56-3.413,2.56h-140.8v12.8
	C230.622,314.138,228.915,315.844,226.355,315.844z M192.222,213.444c-0.853,0-1.707,0-2.56-0.853l-40.107-23.893l-40.107,23.893
	c-1.707,0.853-4.267,0.853-5.973-1.707c0-0.853-0.853-1.707-0.853-2.56c0-1.707,0.853-2.56,1.707-3.413l36.693-22.187
	l-36.693-22.187c-1.707-0.853-1.707-2.56-1.707-3.413c0-0.853,0-1.707,0.853-2.56c0.853-1.707,3.413-2.56,5.973-1.707l40.107,23.893
	l40.107-23.893c1.707-0.853,4.267-0.853,5.973,1.707c0,0.853,0.853,1.707,0.853,2.56c0,1.707-0.853,2.56-1.707,3.413l-36.693,22.187
	l36.693,22.187c1.707,0.853,1.707,2.56,1.707,3.413c0,0.853,0,1.707-0.853,2.56C194.782,212.591,193.929,213.444,192.222,213.444z"
	/>
<g>
</g>
<g>
</g>
<g>
</g>
<g>
</g>
<g>
</g>
<g>
</g>
<g>
</g>
<g>
</g>
<g>
</g>
<g>
</g>
<g>
</g>
<g>
</g>
<g>
</g>
<g>
</g>
<g>
</g>
</svg>
