<?xml version="1.0" encoding="iso-8859-1"?>
<!-- Generator: Adobe Illustrator 19.0.0, SVG Export Plug-In . SVG Version: 6.00 Build 0)  -->
<svg version="1.1" id="Layer_1" xmlns="http://www.w3.org/2000/svg" xmlns:xlink="http://www.w3.org/1999/xlink" x="0px" y="0px"
	 viewBox="0 0 503.467 503.467" style="enable-background:new 0 0 503.467 503.467;" xml:space="preserve">
<g transform="translate(13 1)">
	<path style="fill:#FFD0A1;" d="M298.467,45.933v34.133c0,4.267-3.413,8.533-8.533,8.533H281.4h-85.333h-8.533
		c-4.267,0-8.533-4.267-8.533-8.533V45.933c0-4.267,4.267-8.533,8.533-8.533h25.6h51.2h25.6
		C295.053,37.4,298.467,41.667,298.467,45.933z M93.667,429.933H383.8V293.4H93.667V429.933z"/>
	<path style="fill:#AE938D;" d="M383.8,242.2v51.2H93.667v-51.2c0-18.773,8.533-34.133,25.6-42.667l59.733-25.6
		c17.067-8.533,17.067-25.6,17.067-34.133V88.6H281.4v51.2c0,8.533,0,25.6,17.067,34.133l59.733,25.6
		C375.267,208.067,383.8,223.427,383.8,242.2z M383.8,429.933v34.133c0,18.773-15.36,34.133-34.133,34.133H127.8
		c-18.773,0-34.133-15.36-34.133-34.133v-34.133H383.8z"/>
	<polygon style="fill:#E4F2DE;" points="213.133,37.4 264.333,37.4 264.333,3.267 213.133,3.267 	"/>
</g>
<path style="fill:#51565F;" d="M362.667,503.467H140.8c-21.333,0-38.4-17.067-38.4-38.4V243.2c0-21.333,10.24-37.547,28.16-46.08
	l59.733-25.6c14.507-6.827,14.507-22.187,14.507-29.867V94.72h-4.267c-6.827,0-12.8-5.973-12.8-12.8V47.787
	c0-6.827,5.973-12.8,12.8-12.8h21.333V4.267c0-2.56,1.707-4.267,4.267-4.267h51.2c2.56,0,4.267,1.707,4.267,4.267v29.867h21.333
	c6.827,0,12.8,5.973,12.8,12.8v34.133c0,6.827-5.973,12.8-12.8,12.8h-4.267V140.8c0,7.68,0,23.04,14.507,30.72l59.733,25.6
	c17.92,9.387,28.16,25.6,28.16,46.933V465.92C401.067,486.4,384,503.467,362.667,503.467z M110.933,298.667v166.4
	c0,16.213,13.653,29.867,29.867,29.867h221.867c16.213,0,29.867-13.653,29.867-29.867V435.2H140.8c-2.56,0-4.267-1.707-4.267-4.267
	c0-2.56,1.707-4.267,4.267-4.267h251.733V243.2c0-17.92-7.68-31.573-23.04-39.253l-59.733-25.6
	c-19.627-10.24-19.627-29.867-19.627-38.4v-51.2c0-2.56,1.707-4.267,4.267-4.267h8.533c2.56,0,4.267-1.707,4.267-4.267V46.08
	c0-2.56-1.707-4.267-4.267-4.267h-102.4c-2.56,0-4.267,1.707-4.267,4.267v34.133c0,2.56,1.707,4.267,4.267,4.267h59.733
	c2.56,0,4.267,1.707,4.267,4.267s-1.707,4.267-4.267,4.267h-46.933v46.933c0,8.533,0,28.16-19.627,37.547l-59.733,25.6
	c-15.36,7.68-23.04,21.333-23.04,38.4v46.933h251.733c2.56,0,4.267,1.707,4.267,4.267c0,2.56-1.707,4.267-4.267,4.267H110.933
	V298.667z M230.4,34.133h42.667v-25.6H230.4V34.133z M294.4,392.533c-0.853,0-1.707,0-2.56-0.853l-40.107-23.893l-40.107,23.893
	c-1.707,0.853-4.267,0.853-5.973-1.707c-1.707-2.56-0.853-4.267,1.707-5.973l36.693-22.187l-36.693-22.187
	c-1.707-0.853-2.56-3.413-1.707-5.973c0.853-2.56,3.413-2.56,5.973-1.707l40.107,23.893l40.107-23.893
	c1.707-0.853,4.267-0.853,5.973,1.707c0.853,1.707,0.853,4.267-1.707,5.973l-36.693,22.187L296.107,384
	c1.707,0.853,2.56,3.413,1.707,5.973C296.96,391.68,296.107,392.533,294.4,392.533z M362.667,256c-2.56,0-4.267-1.707-4.267-4.267
	c0-13.653-5.973-17.067-5.973-17.92l-33.28-12.8c-2.56-0.853-3.413-3.413-2.56-5.12c0.853-2.56,3.413-3.413,5.12-2.56l34.133,12.8
	c1.707,0.853,11.093,5.973,11.093,25.6C366.933,254.293,365.227,256,362.667,256z"/>
<g>
</g>
<g>
</g>
<g>
</g>
<g>
</g>
<g>
</g>
<g>
</g>
<g>
</g>
<g>
</g>
<g>
</g>
<g>
</g>
<g>
</g>
<g>
</g>
<g>
</g>
<g>
</g>
<g>
</g>
</svg>
