<?xml version="1.0" encoding="iso-8859-1"?>
<!-- Generator: Adobe Illustrator 19.0.0, SVG Export Plug-In . SVG Version: 6.00 Build 0)  -->
<svg version="1.1" id="Layer_1" xmlns="http://www.w3.org/2000/svg" xmlns:xlink="http://www.w3.org/1999/xlink" x="0px" y="0px"
	 viewBox="0 0 502.967 502.967" style="enable-background:new 0 0 502.967 502.967;" xml:space="preserve">
<g transform="translate(6 1)">
	<path style="fill:#AE938D;" d="M165.407,312.526l35.84,35.84c-29.867,41.813-60.587,72.533-93.013,84.48
		c1.707,11.093-0.853,22.187-9.387,30.72c-13.653,13.653-34.987,13.653-47.787,0c-13.653-13.653-13.653-34.987,0-48.64
		c8.533-8.533,19.627-11.093,29.867-9.387C92.874,373.113,129.567,336.42,165.407,312.526"/>
	<path style="fill:#E4F2DE;" d="M382.154,2.767c0,0,130.56,107.52,30.72,207.36c-96.427,96.427-174.933,127.147-174.933,127.147
		l-36.693,11.947l-35.84-35.84l66.56-66.56c23.893-23.893,72.533-72.533,84.48-132.267C374.474,54.82,382.154,2.767,382.154,2.767"
		/>
</g>
<path style="fill:#51565F;" d="M159.461,502.967c-13.653,0-27.307-5.973-39.253-17.067c-1.707-1.707-1.707-4.267,0-5.973
	c1.707-1.707,4.267-1.707,5.973,0c19.627,19.627,46.933,19.627,66.56,0l35.84-35.84c9.387-9.387,14.507-21.333,14.507-33.28
	s-5.12-23.893-14.507-33.28l-20.48-20.48c-31.573,43.52-59.733,69.12-88.747,80.213c0.853,11.093-3.413,22.187-11.093,30.72
	c-15.36,15.36-39.253,15.36-54.613,0c-15.36-15.36-15.36-39.253,0-54.613c7.68-7.68,19.627-11.947,30.72-11.093
	c11.947-29.013,42.667-63.147,80.213-88.747L132.155,281.1c-1.707-1.707-1.707-4.267,0-5.973c1.707-1.707,4.267-1.707,5.973,0
	l33.28,33.28l63.147-63.147c23.04-23.04,71.68-71.68,83.627-130.56c0-0.853,0.853-1.707,0.853-2.56
	c56.32-56.32,64-107.52,64.853-108.373c0-1.707,0.853-2.56,2.56-3.413s3.413,0,4.267,0.853c2.56,2.56,66.56,55.467,69.973,122.88
	c1.707,32.427-11.093,63.147-38.4,90.453c-96.427,96.427-175.787,127.147-176.64,128c-2.56,0.853-4.267,0-5.12-2.56
	c-0.853-2.56,0-4.267,2.56-5.12c0.853,0,78.507-30.72,173.227-125.44c25.6-25.6,37.547-53.76,36.693-84.48
	c-2.56-52.907-46.08-98.133-61.44-111.787c-4.267,17.067-18.773,58.88-64.853,104.96c-12.8,61.44-61.44,110.08-85.333,133.973
	l-63.147,63.147l57.173,57.173c22.187,22.187,22.187,56.32,0,78.507l-35.84,35.84C186.767,496.993,173.114,502.967,159.461,502.967z
	 M80.954,410.807c-7.68,0-15.36,3.413-21.333,8.533c-11.947,11.947-11.947,30.72,0,42.667c11.947,11.947,30.72,11.947,42.667,0
	c6.827-6.827,10.24-17.067,8.533-26.453c0-1.707,0.853-4.267,2.56-5.12c29.013-10.24,57.173-35.84,88.747-80.213l-31.573-31.573
	c-38.4,26.453-69.973,61.44-79.36,88.747c-0.853,1.707-2.56,3.413-5.12,2.56C84.367,410.807,82.661,410.807,80.954,410.807z
	 M267.834,270.007c-0.853,0-2.56,0-3.413-0.853c-1.707-1.707-1.707-4.267,0-5.973c0.853-0.853,77.653-77.653,83.627-130.56
	c0-0.853,0.853-1.707,0.853-2.56c17.92-17.92,35.84-35.84,46.933-70.827c0.853-2.56,3.413-3.413,5.12-2.56
	c2.56,0.853,3.413,3.413,2.56,5.12c-11.947,36.693-30.72,55.467-48.64,73.387c-7.68,55.467-81.92,130.56-85.333,133.973
	C270.394,269.153,268.687,270.007,267.834,270.007z"/>
<g>
</g>
<g>
</g>
<g>
</g>
<g>
</g>
<g>
</g>
<g>
</g>
<g>
</g>
<g>
</g>
<g>
</g>
<g>
</g>
<g>
</g>
<g>
</g>
<g>
</g>
<g>
</g>
<g>
</g>
</svg>
