<?xml version="1.0" encoding="iso-8859-1"?>
<!-- Generator: Adobe Illustrator 19.0.0, SVG Export Plug-In . SVG Version: 6.00 Build 0)  -->
<svg version="1.1" id="Layer_1" xmlns="http://www.w3.org/2000/svg" xmlns:xlink="http://www.w3.org/1999/xlink" x="0px" y="0px"
	 viewBox="0 0 504.32 504.32" style="enable-background:new 0 0 504.32 504.32;" xml:space="preserve">
<g transform="translate(1 9)">
	<path style="fill:#FFE079;" d="M328.387,127.96l17.067,29.867l-73.387,42.667h-0.853l-17.067-29.867L328.387,127.96z
		 M345.453,234.627v34.133h-102.4v-34.133h17.067v-34.133h11.093h0.853h90.453v34.133H345.453z M388.12,234.627v-34.133h-8.533
		V166.36v-34.133h17.067V98.093H362.52V63.96h8.533V29.827h102.4V63.96h-8.533v34.133h34.133v34.133h-17.067v68.267h8.533v34.133
		h-8.533v34.133h-102.4v-34.133H388.12z"/>
	<path style="fill:#FFD0A1;" d="M208.92,140.76v17.067c0,4.267-3.413,8.533-8.533,8.533h-8.533H21.187h-8.533
		c-4.267,0-8.533-4.267-8.533-8.533V140.76c0-4.267,4.267-8.533,8.533-8.533h187.733C205.507,132.227,208.92,136.493,208.92,140.76z
		 M166.253,456.493H46.787c34.133-14.507,43.52-49.493,44.373-76.8c0,0,0-17.067-2.56-35.84l0,0
		c5.12,0.853,11.093,1.707,17.067,1.707c5.973,0,11.947-0.853,17.067-1.707C123.587,343.853,106.52,430.893,166.253,456.493z"/>
	<path style="fill:#FFE079;" d="M191.853,166.36v93.867c0,40.96-29.013,75.947-68.267,83.627c-5.12,0.853-11.093,1.707-17.067,1.707
		s-11.947-0.853-17.067-1.707c-38.4-7.68-68.267-42.667-68.267-83.627V166.36H191.853z"/>
	<polygon style="fill:#FF7474;" points="106.52,209.027 123.587,234.627 106.52,260.227 89.453,234.627 	"/>
	<path style="fill:#E4F2DE;" d="M225.987,337.027h-8.533c-5.12,0-8.533-4.267-8.533-8.533v-17.067c0-4.267,3.413-8.533,8.533-8.533
		H490.52c5.12,0,8.533,4.267,8.533,8.533v17.067c0,4.267-3.413,8.533-8.533,8.533h-8.533v85.333h8.533
		c5.12,0,8.533,4.267,8.533,8.533v17.067c0,4.267-3.413,8.533-8.533,8.533H217.453c-5.12,0-8.533-4.267-8.533-8.533v-17.067
		c0-4.267,3.413-8.533,8.533-8.533h8.533V337.027z"/>
</g>
<path style="fill:#51565F;" d="M491.52,469.76H218.453c-6.827,0-12.8-5.973-12.8-12.8v-17.067c0-6.827,5.973-12.8,12.8-12.8h4.267
	V380.16c0-2.56,1.707-4.267,4.267-4.267c2.56,0,4.267,1.707,4.267,4.267v51.2c0,2.56-1.707,4.267-4.267,4.267h-8.533
	c-2.56,0-4.267,1.707-4.267,4.267v17.067c0,2.56,1.707,4.267,4.267,4.267H491.52c2.56,0,4.267-1.707,4.267-4.267v-17.067
	c0-2.56-1.707-4.267-4.267-4.267h-230.4c-2.56,0-4.267-1.707-4.267-4.267s1.707-4.267,4.267-4.267h230.4
	c6.827,0,12.8,5.973,12.8,12.8v17.067C504.32,463.787,498.347,469.76,491.52,469.76z M167.253,469.76H47.787
	c-1.707,0-3.413-1.707-4.267-3.413s0.853-4.267,2.56-5.12c32.427-13.653,40.96-47.787,41.813-73.387c0-2.56,1.707-4.267,4.267-4.267
	c2.56,0,4.267,1.707,4.267,4.267c-0.853,23.893-8.533,54.613-33.28,72.533h87.04c-37.547-28.16-34.133-84.48-31.573-103.253
	c-4.267,0.853-7.68,0.853-11.947,0.853c-49.493,0-89.6-40.107-89.6-89.6V208.64c0-2.56,1.707-4.267,4.267-4.267
	s4.267,1.707,4.267,4.267v59.733c0,44.373,36.693,81.067,81.067,81.067s81.067-36.693,81.067-81.067v-93.867
	c0-2.56,1.707-4.267,4.267-4.267h8.533c2.56,0,4.267-1.707,4.267-4.267v-17.067c0-2.56-1.707-4.267-4.267-4.267H12.8
	c-2.56,0-4.267,1.707-4.267,4.267v17.067c0,2.56,1.707,4.267,4.267,4.267h145.067c2.56,0,4.267,1.707,4.267,4.267
	c0,2.56-1.707,4.267-4.267,4.267H12.8c-6.827,0-12.8-5.973-12.8-12.8v-17.067c0-6.827,5.973-12.8,12.8-12.8h187.733
	c6.827,0,12.8,5.973,12.8,12.8v17.067c0,6.827-5.973,12.8-12.8,12.8h-4.267v90.453c0,42.667-29.013,77.653-69.12,87.04
	c-2.56,14.507-9.387,83.627,40.96,104.96c1.707,0.853,2.56,2.56,2.56,5.12S168.96,469.76,167.253,469.76z M482.987,412.587
	c-2.56,0-4.267-1.707-4.267-4.267v-62.293c0-2.56,1.707-4.267,4.267-4.267h8.533c2.56,0,4.267-1.707,4.267-4.267v-17.067
	c0-2.56-1.707-4.267-4.267-4.267H218.453c-2.56,0-4.267,1.707-4.267,4.267v17.067c0,2.56,1.707,4.267,4.267,4.267h230.4
	c2.56,0,4.267,1.707,4.267,4.267c0,2.56-1.707,4.267-4.267,4.267h-230.4c-6.827,0-12.8-5.973-12.8-12.8v-17.067
	c0-6.827,5.973-12.8,12.8-12.8H491.52c6.827,0,12.8,5.973,12.8,12.8v17.067c0,6.827-5.973,12.8-12.8,12.8h-4.267v58.027
	C487.253,410.027,485.547,412.587,482.987,412.587z M482.987,282.027h-102.4c-2.56,0-4.267-1.707-4.267-4.267v-34.133
	c0-2.56,1.707-4.267,4.267-4.267h4.267v-25.6h-4.267c-2.56,0-4.267-1.707-4.267-4.267v-68.267c0-2.56,1.707-4.267,4.267-4.267h12.8
	v-25.6H363.52c-2.56,0-4.267-1.707-4.267-4.267V72.96c0-2.56,1.707-4.267,4.267-4.267h4.267V38.827c0-2.56,1.707-4.267,4.267-4.267
	h102.4c2.56,0,4.267,1.707,4.267,4.267V72.96c0,2.56-1.707,4.267-4.267,4.267s-4.267-1.707-4.267-4.267V43.093H376.32v25.6h64
	c2.56,0,4.267,1.707,4.267,4.267s-1.707,4.267-4.267,4.267h-72.533v25.6h29.867c2.56,0,4.267,1.707,4.267,4.267v29.867h46.933
	c2.56,0,4.267,1.707,4.267,4.267s-1.707,4.267-4.267,4.267h-64v25.6h64c2.56,0,4.267,1.707,4.267,4.267
	c0,2.56-1.707,4.267-4.267,4.267h-64v25.6h64c2.56,0,4.267,1.707,4.267,4.267c0,2.56-1.707,4.267-4.267,4.267h-55.467v25.6h55.467
	c2.56,0,4.267,1.707,4.267,4.267c0,2.56-1.707,4.267-4.267,4.267h-64v25.6h93.867v-29.867c0-2.56,1.707-4.267,4.267-4.267h4.267
	v-25.6h-4.267c-2.56,0-4.267-1.707-4.267-4.267v-68.267c0-2.56,1.707-4.267,4.267-4.267h12.8v-25.6h-64
	c-2.56,0-4.267-1.707-4.267-4.267c0-2.56,1.707-4.267,4.267-4.267h68.267c2.56,0,4.267,1.707,4.267,4.267v34.133
	c0,2.56-1.707,4.267-4.267,4.267h-12.8v59.733h4.267c2.56,0,4.267,1.707,4.267,4.267v34.133c0,2.56-1.707,4.267-4.267,4.267h-4.267
	v29.867C487.253,280.32,485.547,282.027,482.987,282.027z M346.453,282.027h-102.4c-2.56,0-4.267-1.707-4.267-4.267v-34.133
	c0-2.56,1.707-4.267,4.267-4.267h12.8v-29.867c0-2.56,1.707-4.267,4.267-4.267h4.267l-13.653-23.04c-0.853-0.853-0.853-2.56,0-3.413
	c0.853-0.853,0.853-1.707,1.707-2.56l74.24-42.667c1.707-0.853,4.267-0.853,5.973,1.707l17.067,29.867
	c0.853,0.853,0.853,2.56,0.853,3.413c0,0.853-0.853,1.707-1.707,2.56l-25.6,14.507c-1.707,0.853-4.267,0.853-5.973-1.707
	c-0.853-1.707-0.853-4.267,1.707-5.973l22.187-12.8l-12.8-22.187l-66.56,38.4l13.653,23.893h71.68c2.56,0,4.267,1.707,4.267,4.267
	c0,2.56-1.707,4.267-4.267,4.267h-74.24l0,0h-6.827v29.867c0,2.56-1.707,4.267-4.267,4.267h-12.8v25.6h93.867v-25.6H296.96
	c-2.56,0-4.267-1.707-4.267-4.267c0-2.56,1.707-4.267,4.267-4.267h51.2c2.56,0,4.267,1.707,4.267,4.267v34.133
	C350.72,280.32,349.013,282.027,346.453,282.027z M107.52,273.493c-1.707,0-2.56-0.853-3.413-1.707l-16.213-23.893h-23.04
	c-2.56,0-4.267-1.707-4.267-4.267c0-2.56,1.707-4.267,4.267-4.267h23.04l16.213-23.893c1.707-2.56,5.12-2.56,6.827,0l16.213,23.893
	h23.04c2.56,0,4.267,1.707,4.267,4.267c0,2.56-1.707,4.267-4.267,4.267h-23.04l-16.213,23.893
	C110.08,272.64,109.227,273.493,107.52,273.493z M95.573,243.627l11.947,17.92l11.947-17.92l-11.947-17.92L95.573,243.627z"/>
<g>
</g>
<g>
</g>
<g>
</g>
<g>
</g>
<g>
</g>
<g>
</g>
<g>
</g>
<g>
</g>
<g>
</g>
<g>
</g>
<g>
</g>
<g>
</g>
<g>
</g>
<g>
</g>
<g>
</g>
</svg>
