<?xml version="1.0" encoding="UTF-8"?>
<svg viewBox="0 0 512 512" xmlns="http://www.w3.org/2000/svg" xmlns:xlink="http://www.w3.org/1999/xlink">
    <path id="Path" fill="#e6eef4" stroke="none" d="M 423.723999 0 L 88.276001 0 C 78.522003 0 70.621002 7.901001 70.621002 17.654999 L 70.621002 494.345001 C 70.621002 504.098999 78.522003 512 88.276001 512 L 423.723999 512 C 433.477997 512 441.378998 504.098999 441.378998 494.345001 L 441.378998 17.654999 C 441.378998 7.901001 433.479004 0 423.723999 0"/>
    <g id="Group">
        <path id="path1" fill="#d71e00" stroke="none" d="M 256 238.345001 C 265.506989 214.130981 285.625 194.205994 310.880981 194.205994 C 332.138 194.205994 351.082001 204.200012 363.846985 220.690002 C 379.859985 241.382019 391.177002 287.444 356.131989 322.48999 C 338.352997 340.268005 256 423.723999 256 423.723999 C 256 423.723999 173.647003 340.268005 155.869003 322.489014 C 120.822998 287.442993 132.139999 241.380981 148.153992 220.688995 C 160.918991 204.199005 179.862991 194.205994 201.119995 194.205994 C 226.375 194.205994 246.492996 214.130981 256 238.345001"/>
        <path id="path2" fill="#d71e00" stroke="none" d="M 123.586998 97.102997 C 143.089996 97.102997 158.897003 81.294983 158.897003 61.792999 C 158.897003 42.291016 143.089005 26.483002 123.586998 26.483002 C 119.528999 26.483002 115.562996 27.169006 111.808998 28.5 C 106.556999 30.348999 101.983002 33.519989 97.607002 37.895996 C 94.159996 41.342987 94.159996 46.933014 97.607002 50.380005 C 101.054001 53.826996 106.643997 53.826996 110.090996 50.380005 C 112.742996 47.727997 115.204002 46.022003 117.691002 45.145996 C 119.573997 44.477997 121.544998 44.138 123.586998 44.138 C 133.339005 44.138 141.242004 52.041016 141.242004 61.792999 C 141.242004 71.544983 133.339005 79.447998 123.586998 79.447998 L 114.785995 79.447998 C 109.910995 79.447998 105.958 83.399994 105.958 88.276001 C 105.958 93.151001 109.909996 97.104004 114.785995 97.104004 L 123.586998 97.104004 L 123.586998 97.102997 Z"/>
        <path id="path3" fill="#d71e00" stroke="none" d="M 123.588997 150.067017 C 143.091995 150.067017 158.899002 134.259003 158.899002 114.757019 C 158.899002 95.255005 143.091003 79.446991 123.588997 79.446991 L 114.761002 79.446991 C 109.886002 79.446991 105.932999 83.398987 105.932999 88.274994 C 105.932999 93.149994 109.885002 97.102997 114.761002 97.102997 L 123.588997 97.102997 C 133.341003 97.102997 141.244003 105.005981 141.244003 114.757996 C 141.244003 124.51001 133.341003 132.412994 123.588997 132.412994 C 118.780998 132.412994 114.142998 130.230011 110.118996 126.205994 C 106.671997 122.759003 101.082001 122.759003 97.635002 126.205994 C 94.187996 129.653015 94.187996 135.242981 97.635002 138.690002 C 104.784996 145.839996 113.767998 150.067017 123.588997 150.067017 Z"/>
    </g>
</svg>