<?xml version="1.0" encoding="UTF-8"?>
<svg viewBox="0 0 512 512" xmlns="http://www.w3.org/2000/svg" xmlns:xlink="http://www.w3.org/1999/xlink">
    <g id="Page-1">
        <g id="heart3">
            <path id="Path" fill="#e6eef4" stroke="none" d="M 423.723999 0 L 88.276001 0 C 78.522003 0 70.621002 7.901001 70.621002 17.654999 L 70.621002 494.345001 C 70.621002 504.098999 78.522003 512 88.276001 512 L 423.723999 512 C 433.477997 512 441.378998 504.098999 441.378998 494.345001 L 441.378998 17.654999 C 441.378998 7.901001 433.479004 0 423.723999 0"/>
            <g id="Group">
                <path id="path1" fill="#d71e00" stroke="none" d="M 256 238.345001 C 265.506989 214.130981 285.625 194.205994 310.880981 194.205994 C 332.138 194.205994 351.082001 204.200012 363.846985 220.690002 C 379.859985 241.382019 391.177002 287.444 356.131989 322.48999 C 338.352997 340.268005 256 423.723999 256 423.723999 C 256 423.723999 173.647003 340.268005 155.869003 322.489014 C 120.822998 287.442993 132.139999 241.380981 148.153992 220.688995 C 160.918991 204.199005 179.862991 194.205994 201.119995 194.205994 C 226.375 194.205994 246.492996 214.130981 256 238.345001"/>
                <path id="path2" fill="#d71e00" stroke="none" d="M 150.069 44.138 C 154.944 44.138 158.897003 40.186005 158.897003 35.309998 C 158.897003 30.43399 154.945007 26.481995 150.069 26.481995 L 105.931 26.481995 C 101.056 26.481995 97.103004 30.43399 97.103004 35.309998 C 97.103004 40.186005 101.055 44.138 105.931 44.138 L 150.069 44.138 L 150.069 44.138 Z"/>
                <path id="path3" fill="#d71e00" stroke="none" d="M 97.103004 79.447998 C 97.103004 84.322998 101.055 88.276001 105.931 88.276001 C 110.806 88.276001 114.759003 84.324005 114.759003 79.447998 L 114.759003 35.309998 C 114.759003 30.434998 110.806999 26.481995 105.931 26.481995 C 101.056 26.481995 97.103004 30.43399 97.103004 35.309998 L 97.103004 79.447998 Z"/>
                <path id="path4" fill="#d71e00" stroke="none" d="M 126.535004 134.376007 C 146.576004 134.376007 162.824997 118.127014 162.824997 98.085999 C 162.824997 78.044983 146.576004 61.79599 126.535004 61.79599 C 115.989998 61.79599 106.150002 66.32901 99.312004 74.07901 C 96.085999 77.734985 96.434998 83.312988 100.091003 86.539001 C 103.747002 89.765015 109.325005 89.416016 112.551003 85.76001 C 116.07 81.772003 121.107002 79.451996 126.535004 79.451996 C 136.824997 79.451996 145.169998 87.796997 145.169998 98.087006 C 145.169998 108.377014 136.824997 116.721985 126.535004 116.721985 C 121.107002 116.721985 116.076004 114.399994 112.551003 110.404999 C 109.325005 106.748993 103.747002 106.401001 100.091003 109.626007 C 96.434998 112.85199 96.086998 118.429993 99.312004 122.085999 C 106.153 129.838989 115.986 134.376007 126.535004 134.376007 Z"/>
            </g>
        </g>
    </g>
</svg>
