<?xml version="1.0" encoding="UTF-8"?>
<svg viewBox="0 0 512 512" xmlns="http://www.w3.org/2000/svg" xmlns:xlink="http://www.w3.org/1999/xlink">
    <g id="Page-1">
        <g id="heartking">
            <path id="Path" fill="#e6eef4" stroke="none" d="M 423.723999 0 L 88.276001 0 C 78.522003 0 70.621002 7.901001 70.621002 17.654999 L 70.621002 494.345001 C 70.621002 504.098999 78.522003 512 88.276001 512 L 423.723999 512 C 433.477997 512 441.378998 504.098999 441.378998 494.345001 L 441.378998 17.654999 C 441.378998 7.901001 433.479004 0 423.723999 0"/>
            <g id="Group">
                <path id="path1" fill="#d71e00" stroke="none" d="M 256 238.345001 C 265.506989 214.130981 285.625 194.205994 310.880981 194.205994 C 332.138 194.205994 351.082001 204.200012 363.846985 220.690002 C 379.859985 241.382019 391.177002 287.444 356.131989 322.48999 C 338.352997 340.268005 256 423.723999 256 423.723999 C 256 423.723999 173.647003 340.268005 155.869003 322.489014 C 120.822998 287.442993 132.139999 241.380981 148.153992 220.688995 C 160.918991 204.199005 179.862991 194.205994 201.119995 194.205994 C 226.375 194.205994 246.492996 214.130981 256 238.345001"/>
                <path id="Shape" fill="#d71e00" stroke="none" d="M 97.103004 61.792999 L 97.103004 114.759003 C 97.103004 134.200012 112.972 150.069 132.412994 150.069 C 151.854004 150.069 167.723007 134.200012 167.723007 114.759003 L 167.723007 61.792999 C 167.723007 42.35199 151.854004 26.483002 132.412994 26.483002 C 112.972 26.483002 97.103004 42.35199 97.103004 61.792999 Z M 150.069 61.792999 L 150.069 114.759003 C 150.069 124.449005 142.104004 132.414001 132.414001 132.414001 C 122.723999 132.414001 114.759003 124.449005 114.759003 114.759003 L 114.759003 61.792999 C 114.759003 52.102997 122.723999 44.138 132.414001 44.138 C 142.104004 44.138 150.069 52.102997 150.069 61.792999 Z"/>
                <path id="path2" fill="#d71e00" stroke="none" d="M 162.428009 148.303009 C 166.328003 151.227997 171.861008 150.437988 174.787003 146.536987 C 177.712006 142.636993 176.921997 137.104004 173.021011 134.178009 L 137.710999 107.695007 C 133.811005 104.769989 128.278 105.559998 125.351997 109.460999 C 122.427002 113.360992 123.217003 118.893982 127.118004 121.820007 L 162.428009 148.303009 Z"/>
            </g>
        </g>
    </g>
</svg>
