<?xml version="1.0" encoding="UTF-8"?>
<svg viewBox="0 0 512 512" xmlns="http://www.w3.org/2000/svg" xmlns:xlink="http://www.w3.org/1999/xlink">
    <g id="Page-1">
        <g id="heart3">
            <path id="Path" fill="#e6eef4" stroke="none" d="M 423.723999 0 L 88.276001 0 C 78.522003 0 70.621002 7.901001 70.621002 17.654999 L 70.621002 494.345001 C 70.621002 504.098999 78.522003 512 88.276001 512 L 423.723999 512 C 433.477997 512 441.378998 504.098999 441.378998 494.345001 L 441.378998 17.654999 C 441.378998 7.901001 433.479004 0 423.723999 0"/>
            <g id="Group">
                <path id="path1" fill="#d71e00" stroke="none" d="M 256 238.345001 C 265.507019 214.131012 285.625 194.205994 310.881012 194.205994 C 332.138 194.205994 351.082001 204.200012 363.846985 220.690002 C 379.859985 241.381989 391.177002 287.444 356.132019 322.48999 C 338.352997 340.268005 256 423.723999 256 423.723999 C 256 423.723999 173.647003 340.268005 155.869003 322.489014 C 120.822998 287.442993 132.139999 241.381012 148.154007 220.688995 C 160.919006 204.199005 179.863007 194.205994 201.119995 194.205994 C 226.375 194.205994 246.492996 214.131012 256 238.345001"/>
            </g>
            <path id="path2" fill="#d71e00" stroke="none" d="M 98.868996 100.634003 C 95.944 104.533997 96.734001 110.067017 100.635002 112.992981 C 104.534996 115.917999 110.068001 115.127991 112.993996 111.22699 L 165.959991 40.605988 C 168.884995 36.705994 168.095001 31.173004 164.194 28.247009 C 160.293991 25.321991 154.761002 26.112 151.834991 30.013 L 98.868996 100.634003 Z"/>
            <path id="path3" fill="#d71e00" stroke="none" d="M 150.069 141.240997 C 150.069 146.115997 154.020996 150.069 158.897003 150.069 C 163.772995 150.069 167.724991 146.117004 167.724991 141.240997 L 167.724991 35.309998 C 167.724991 30.434998 163.772995 26.481995 158.897003 26.481995 C 154.020996 26.481995 150.069 30.43399 150.069 35.309998 L 150.069 141.240997 Z"/>
            <path id="path4" fill="#d71e00" stroke="none" d="M 105.931 97.102997 C 101.056 97.102997 97.102997 101.054993 97.102997 105.931 C 97.102997 110.806 101.055 114.759003 105.931 114.759003 L 176.552002 114.759003 C 181.427002 114.759003 185.37999 110.807007 185.37999 105.931 C 185.37999 101.056 181.427994 97.102997 176.552002 97.102997 L 105.931 97.102997 Z"/>
            <path id="path5" fill="#d71e00" stroke="none" d="M 176.552002 150.069 C 181.427002 150.069 185.380005 146.117004 185.380005 141.240997 C 185.380005 136.36499 181.428009 132.412994 176.552002 132.412994 L 141.242004 132.412994 C 136.367004 132.412994 132.414001 136.36499 132.414001 141.240997 C 132.414001 146.117004 136.365997 150.069 141.242004 150.069 L 176.552002 150.069 Z"/>
        </g>
    </g>
</svg>
