<svg viewBox="0 0 512 512" xmlns="http://www.w3.org/2000/svg" xmlns:xlink="http://www.w3.org/1999/xlink">
    <g id="color-copy">
        <path id="Path" fill="#d0cfce" stroke="none" d="M 95.5 -0.200012 L 416 -0.200012 L 416 512.599976 L 95.5 512.599976 Z"/>
        <path id="path1" fill="#ea5a47" stroke="none" d="M 254.155716 359.762573 L 180.498245 380.414307 L 189.431152 343.433533 L 134.806458 342.209045 L 159.098709 321.98468 L 192.208817 309.633057 L 332.283752 311.917664 L 373.578949 340.918793 L 321.962006 343.433533 L 333.828735 380.414307 L 254.155716 359.762573 Z"/>
        <path id="path2" fill="#d22f27" stroke="none" d="M 304.439697 372.798706 C 309.607971 379.664001 333.829529 380.415924 333.829529 380.415924 L 321.95871 343.43515 L 373.582245 340.921265 L 332.281281 311.917664 L 308.245453 311.17804 C 303.180695 314.161194 299.271423 365.932587 304.439697 372.798706 Z"/>
        <path id="path3" fill="#ea5a47" stroke="none" d="M 132.652527 151.71698 C 127.118553 152.949677 165.040283 98.918274 226.549179 130.949402 C 226.549179 130.949402 263.529938 42.368958 344.977203 75.471649 C 344.977203 75.471649 277.840668 126.944794 295.449249 124.722656 C 363.311432 116.159546 372.348724 160.754272 372.348724 160.754272 C 289.582489 137.426788 336.368103 206.788727 336.368103 206.788727 C 280.044708 150.571381 217.422302 159.80014 172.385483 200.83728 C 172.387131 200.83728 196.745132 137.426788 132.652527 151.71698 Z"/>
        <path id="path4" fill="#d22f27" stroke="none" d="M 295.449249 124.722656 C 363.311432 116.159546 372.348724 160.754272 372.348724 160.754272 C 289.582489 137.426788 336.368103 206.788727 336.368103 206.788727 C 319.730011 190.182709 286.7966 187.141266 285.706055 173.369629 C 283.575989 146.463226 283.041809 126.288177 295.449249 124.722656 Z"/>
    </g>
    <g id="skin-copy">
        <path id="path5" fill="#fcea2b" stroke="none" d="M 325.662842 200.121613 C 323.376068 184.067993 238.314301 146.596191 186.523193 195.071014 C 186.523193 195.071014 184.548798 228.754883 184.548798 235.943756 C 184.548798 284.981049 216.352142 324.737335 255.582886 324.737335 C 294.813629 324.737335 326.614655 284.984131 326.614655 235.943756 C 327.350525 223.99826 327.032043 212.0112 325.662842 200.121613 Z"/>
    </g>
    <g id="line-copy">
        <path id="path6" fill="none" stroke="#000000" stroke-width="16.416668" stroke-linecap="round" stroke-linejoin="round" d="M 95.5 -0.200012 L 415.625031 -0.200012 L 415.625031 512 L 95.5 512 Z"/>
        <path id="path7" fill="none" stroke="#000000" stroke-width="16.416668" stroke-linecap="round" stroke-linejoin="round" d="M 132.60907 151.539246 C 127.081566 152.770508 164.958923 98.802338 226.395844 130.795959 C 226.395844 130.795959 263.333344 42.319153 344.685333 75.383118 C 344.685333 75.383118 277.627319 126.796021 295.215332 124.576477 C 362.998108 116.023407 372.024841 160.565948 372.024841 160.565948 C 289.355408 137.265778 336.086273 206.54657 336.086273 206.54657 C 279.828796 150.394989 217.279663 159.612946 172.295532 200.602081 C 172.29718 200.602081 196.626678 137.265778 132.60907 151.539246 Z"/>
        <path id="path8" fill="none" stroke="#000000" stroke-width="16.416668" stroke-linecap="round" stroke-linejoin="round" d="M 173.447159 311.55249 C 163.506882 311.584534 121.570488 339.775208 121.570488 352.616333 C 121.570488 352.616333 175.491852 338.087585 189.320435 343.03064 C 189.320435 343.03064 173.40448 374.346252 174.391937 391.138062 C 174.391937 391.138062 226.692978 365.344177 255.508347 365.344177"/>
        <path id="path9" fill="none" stroke="#000000" stroke-width="16.416668" stroke-linecap="round" stroke-linejoin="round" d="M 337.563782 311.55249 C 347.504059 311.584534 389.44046 339.775208 389.44046 352.616333 C 389.44046 352.616333 335.51825 338.087585 321.689667 343.03064 C 321.689667 343.03064 337.606476 374.346252 336.618195 391.138062 C 336.618195 391.138062 284.317139 365.344177 255.50177 365.344177"/>
        <path id="path10" fill="none" stroke="#000000" stroke-width="16.416668" stroke-linecap="round" stroke-linejoin="round" d="M 151.891266 20.731232 L 151.891266 57.668732 C 151.891266 69.002075 142.703766 78.189545 131.370422 78.189545 L 131.370422 78.189545 C 126.298241 78.197021 121.404358 76.318817 117.639526 72.91983"/>
        <path id="path11" fill="none" stroke="#000000" stroke-width="16.416668" stroke-linecap="round" stroke-linejoin="round" d="M 359.233795 487.510468 L 359.233795 450.572937 C 359.233795 439.239624 368.421265 430.052124 379.754608 430.052124 L 379.754608 430.052124 C 384.826813 430.044678 389.720673 431.922852 393.485504 435.321899"/>
        <path id="path12" fill="#000000" stroke="none" d="M 392.894501 185.926422 C 392.894501 194.760956 385.732666 201.922852 376.898132 201.922852 C 368.063538 201.922852 360.901703 194.760956 360.901703 185.926422 C 360.901703 177.091858 368.063538 169.930023 376.898132 169.930023 C 385.732666 169.930023 392.894501 177.091858 392.894501 185.926422 Z"/>
        <path id="path13" fill="#000000" stroke="none" d="M 376.898132 95.68811 C 376.898132 104.522644 369.736267 111.684479 360.901703 111.684479 C 352.067139 111.684479 344.905304 104.522644 344.905304 95.68811 C 344.905304 86.853516 352.067139 79.691711 360.901703 79.691711 C 369.736267 79.691711 376.898132 86.853516 376.898132 95.68811 Z"/>
        <path id="path14" fill="#000000" stroke="none" d="M 145.804779 177.648315 C 145.804779 186.48288 138.642944 193.644714 129.80838 193.644714 C 120.973801 193.644714 113.811974 186.48288 113.811974 177.648315 C 113.811974 168.813751 120.973801 161.651886 129.80838 161.651886 C 138.642944 161.651886 145.804779 168.813751 145.804779 177.648315 Z"/>
        <path id="path15" fill="#000000" stroke="none" d="M 302.937714 215.652924 C 302.937714 222.12323 299.04007 227.956451 293.062195 230.432465 C 287.08432 232.908508 280.203583 231.539673 275.628479 226.964355 C 271.053375 222.389008 269.684937 215.508179 272.161224 209.530487 C 274.637573 203.552704 280.470978 199.655334 286.941345 199.65567 C 295.773956 199.661102 302.932739 206.820282 302.937714 215.652924"/>
        <path id="path16" fill="#000000" stroke="none" d="M 238.951309 215.652924 C 238.951309 224.487946 231.789108 231.650116 222.954102 231.650116 C 214.119064 231.650116 206.956863 224.487946 206.956863 215.652924 C 206.956863 206.817902 214.119064 199.65567 222.954102 199.65567 C 231.787048 199.660645 238.94632 206.819946 238.951309 215.652924"/>
        <path id="path17" fill="#000000" stroke="none" d="M 254.946884 295.655426 C 245.344971 295.562561 235.899612 293.211853 227.374268 288.793274 C 223.423035 286.817383 221.82164 282.012512 223.797485 278.061279 C 225.773361 274.110016 230.578232 272.508667 234.52948 274.484497 C 247.273422 281.357727 262.620361 281.357727 275.364288 274.484497 C 279.315552 272.508667 284.120422 274.110016 286.096283 278.061279 C 288.072144 282.012512 286.470764 286.817383 282.519501 288.793274 C 273.994171 293.211853 264.548798 295.562561 254.946884 295.655426 Z"/>
    </g>
</svg>
